<?xml version="1.0" encoding="UTF-8" standalone="no"?>
<!DOCTYPE svg PUBLIC "-//W3C//DTD SVG 1.1//EN" "http://www.w3.org/Graphics/SVG/1.1/DTD/svg11.dtd">
<svg width="100%" height="100%" viewBox="0 0 1227 582" version="1.1" xmlns="http://www.w3.org/2000/svg" xmlns:xlink="http://www.w3.org/1999/xlink" xml:space="preserve" style="fill-rule:evenodd;clip-rule:evenodd;stroke-linejoin:round;stroke-miterlimit:1.41421;">
    <g transform="matrix(4.16667,0,0,4.16667,10.539,-1509.82)">
        <g>
            <g>
                <path d="M237.927,454.278C243.655,454.249 250.81,452.69 256.493,450.8L253.111,465.347C245.999,466.745 238.015,467.975 228.655,467.989C199.38,468.136 186.79,453.093 186.716,437.477C186.658,416.567 209.128,395.722 245.31,396.212C252.986,396.337 260.31,397.729 265.21,399.304L260.427,416.464L257.996,416.464C255.015,412.546 250.466,409.595 241.48,409.595C223.169,409.595 211.809,419.628 211.861,433.024C211.904,445.116 222.327,454.352 237.927,454.278Z" style="fill:rgb(255,255,255);fill-rule:nonzero;"/>
                <path d="M132.129,396.901L131.007,401.45C131.007,401.45 137.937,402.196 135.806,409.097L120.029,466.46L151.575,466.503L152.754,461.567C152.754,461.567 146.865,460.175 148.396,454.712C148.513,454.235 153.01,437.704 153.01,437.704L167.49,437.661C174.675,437.704 177.042,441.44 177.042,441.44L181.245,424.411L156.899,424.411L160.51,411.03L181.677,411.015C185.559,411.015 188.306,413.614 188.306,415.534L190.693,415.534L195.359,396.901L132.129,396.901Z" style="fill:rgb(255,255,255);fill-rule:nonzero;"/>
                <path d="M108.237,456.212C106.362,454.235 90.117,428.931 90.117,428.931L119.802,405.155C124.812,400.981 128.35,401.45 128.35,401.45L129.521,396.872L92.607,396.901L91.45,401.45C93.969,401.597 97.485,403.837 94.599,406.503C94.24,406.833 64.943,429.224 64.943,429.224L71.264,406.356C72.568,401.925 77.292,401.45 77.292,401.45L78.449,396.886L43.212,396.901L42.07,401.45C43.754,401.866 48.566,402.798 46.904,409.126C35.127,451.62 36.489,447.423 35.712,449.745C32.49,461.999 27.297,461.391 25.422,461.522L24.206,466.46L61.062,466.46L62.307,461.493C62.307,461.493 56.44,460.321 57.568,456.081C58.674,451.905 63.31,435.171 63.31,435.171C69.689,445.46 71.169,446.706 78.881,457.274C86.579,467.88 94.797,466.503 116.594,466.503L117.81,461.567C113.159,461.597 110.098,458.19 108.237,456.212Z" style="fill:rgb(255,255,255);fill-rule:nonzero;"/>
                <path d="M270.125,397.706C270.579,397.706 270.908,397.759 271.113,397.847C271.494,397.993 271.669,398.292 271.669,398.739C271.669,399.091 271.552,399.311 271.311,399.45C271.194,399.538 271.011,399.618 270.784,399.64C271.07,399.692 271.282,399.794 271.399,399.991C271.539,400.22 271.611,400.366 271.611,400.542L271.611,400.827C271.611,400.923 271.611,401.011 271.626,401.083C271.626,401.2 271.64,401.266 271.64,401.309L271.669,401.325L271.07,401.325L271.054,401.309L271.054,401.266L271.041,401.112L271.041,400.849C271.041,400.425 270.937,400.167 270.696,399.991C270.579,399.927 270.337,399.882 269.993,399.882L269.495,399.882L269.495,401.325L268.85,401.325L268.85,397.706L270.125,397.706ZM270.798,398.278C270.652,398.19 270.396,398.161 270.037,398.161L269.495,398.161L269.495,399.45L270.066,399.45C270.337,399.45 270.535,399.434 270.667,399.362C270.923,399.266 271.041,399.091 271.041,398.819C271.041,398.534 270.966,398.388 270.798,398.278ZM272.527,401.852C271.882,402.511 271.083,402.827 270.183,402.827C269.275,402.827 268.492,402.511 267.847,401.852C267.216,401.222 266.902,400.438 266.902,399.538C266.902,398.622 267.216,397.847 267.861,397.202C268.492,396.558 269.275,396.241 270.183,396.241C271.083,396.241 271.882,396.558 272.527,397.202C273.171,397.847 273.486,398.622 273.486,399.538C273.486,400.438 273.171,401.222 272.527,401.852ZM268.176,397.53C267.62,398.052 267.363,398.739 267.363,399.538C267.363,400.321 267.62,400.981 268.176,401.515C268.733,402.1 269.407,402.401 270.183,402.401C270.966,402.401 271.64,402.1 272.212,401.515C272.753,400.981 273.025,400.321 273.025,399.538C273.025,398.739 272.753,398.052 272.212,397.53C271.64,396.974 270.966,396.659 270.183,396.659C269.407,396.659 268.748,396.974 268.176,397.53Z" style="fill:rgb(255,255,255);"/>
            </g>
        </g>
    </g>
</svg>
