<?xml version="1.0" encoding="UTF-8" standalone="no"?>
<!DOCTYPE svg PUBLIC "-//W3C//DTD SVG 1.1//EN" "http://www.w3.org/Graphics/SVG/1.1/DTD/svg11.dtd">
<svg width="100%" height="100%" viewBox="0 0 871 304" version="1.1" xmlns="http://www.w3.org/2000/svg" xmlns:xlink="http://www.w3.org/1999/xlink" xml:space="preserve" style="fill-rule:evenodd;clip-rule:evenodd;stroke-linejoin:round;stroke-miterlimit:1.41421;">
    <g id="Layer-1" transform="matrix(4.16667,0,0,4.16667,0,0)">
        <path d="M1.291,71.355C1.291,71.355 119.689,42.271 207.409,62.761L207.679,61.814C207.679,61.814 131.138,39.212 2.76,66.746L1.291,71.355Z" style="fill:rgb(255,255,255);fill-rule:nonzero;"/>
        <path d="M57.966,14.28L57.966,19.1C58.401,18.135 58.958,16.827 60.445,15.589C62.056,14.212 64.41,13.454 66.703,13.454C67.88,13.454 69.058,13.661 70.235,14.073C73.891,15.452 74.944,18.343 75.377,19.581C78.228,14.28 82.751,13.524 85.167,13.524C88.141,13.524 90.743,14.626 92.479,16.346C95.576,19.376 95.7,22.678 95.7,30.94L95.7,49.942L86.592,49.942L86.592,33.075C86.592,27.36 86.469,26.19 85.539,24.676C84.547,23.024 83.122,22.678 81.759,22.678C79.281,22.678 78.042,24.469 77.856,24.745C76.864,26.466 76.864,29.426 76.864,32.317L76.864,49.942L67.756,49.942L67.756,31.973C67.756,28.118 67.756,26.397 66.827,24.813C66.146,23.643 64.782,22.678 63.11,22.678C62.304,22.678 61.498,22.885 60.754,23.3C58.09,24.813 58.029,27.43 58.029,34.176L58.029,49.942L48.92,49.942L48.92,14.28L57.966,14.28Z" style="fill:rgb(255,255,255);fill-rule:nonzero;"/>
        <path d="M131.919,14.28L141.214,14.28L131.919,49.942L123.429,49.942L118.038,25.846L112.71,49.942L104.099,49.942L94.804,14.28L104.099,14.28L108.993,36.587L114.011,14.28L122.065,14.28L127.024,36.587L131.919,14.28Z" style="fill:rgb(255,255,255);fill-rule:nonzero;"/>
        <path d="M160.812,49.942L169.734,49.942L169.734,14.212L160.998,14.212L160.998,18.825C159.388,15.381 156.599,13.385 153.068,13.385C146.996,13.385 139.064,18.618 139.064,32.663C139.064,43.815 144.765,50.7 152.386,50.7C157.591,50.7 159.697,47.671 160.812,46.018L160.812,49.942ZM160.341,31.698C160.341,34.934 159.908,38.032 157.988,40.374C156.376,42.231 154.58,42.37 154.021,42.37C152.226,42.37 150.179,41.268 148.941,38.169C148.199,36.379 147.951,34.245 147.951,32.042C147.951,29.288 148.322,26.465 149.871,24.194C150.986,22.61 152.72,21.579 154.394,21.579C155.755,21.579 157.119,22.266 158.05,23.368C159.226,24.676 160.341,27.087 160.341,31.698" style="fill:rgb(255,255,255);fill-rule:nonzero;"/>
        <path d="M190.767,14.28L200.025,14.28L189.837,49.667C189.093,52.145 187.917,56.208 186.121,58.204C184.447,59.993 182.464,60.819 175.091,60.819C174.037,60.819 173.605,60.751 172.675,60.682L172.675,52.764L175.091,52.764C175.958,52.764 178.003,52.764 178.933,51.87C179.675,51.251 180.296,49.735 180.296,48.29C180.296,47.532 179.923,46.155 179.615,45.26L169.701,14.28L179.615,14.28L185.439,38.307L190.767,14.28Z" style="fill:rgb(255,255,255);fill-rule:nonzero;"/>
        <path d="M22.803,1.229L7.504,49.943L18.74,49.943L21.596,39.593L35.943,39.593L38.864,49.943L50.163,49.943L34.229,1.229L22.803,1.229ZM28.58,11.924L33.468,30.692L23.946,30.692L28.58,11.924Z" style="fill:rgb(255,255,255);fill-rule:nonzero;"/>
        <path d="M192.895,56.735L192.044,56.735L192.044,53.451L190.786,53.451L190.786,52.756L194.118,52.756L194.118,53.451L192.895,53.451L192.895,56.735ZM198.541,56.735L197.714,56.735L197.75,54.445C197.75,54.206 197.786,53.774 197.798,53.631C197.75,53.797 197.678,54.062 197.619,54.29L196.874,56.735L196.12,56.735L195.353,54.29C195.329,54.194 195.197,53.75 195.173,53.654C195.209,53.87 195.221,54.122 195.233,54.445L195.281,56.735L194.454,56.735L194.454,52.756L195.556,52.756L196.515,55.764L197.427,52.756L198.541,52.756L198.541,56.735Z" style="fill:rgb(255,255,255);fill-rule:nonzero;"/>
    </g>
</svg>
