<?xml version="1.0" encoding="UTF-8" standalone="no"?>
<!DOCTYPE svg PUBLIC "-//W3C//DTD SVG 1.1//EN" "http://www.w3.org/Graphics/SVG/1.1/DTD/svg11.dtd">
<svg width="100%" height="100%" viewBox="0 0 194 194" version="1.1" xmlns="http://www.w3.org/2000/svg" xmlns:xlink="http://www.w3.org/1999/xlink" xml:space="preserve" style="fill-rule:evenodd;clip-rule:evenodd;stroke-linejoin:round;stroke-miterlimit:1.41421;">
    <g>
        <path d="M76.707,39.677C80.999,40.654 76.595,45.447 76.368,45.953C75.534,47.81 71.23,50.289 69.583,45.953C68.957,44.303 69.333,42.227 70.601,41.203C71.417,40.545 74.907,39.267 76.707,39.677ZM109.274,44.935C106.493,44.538 105.067,45.953 103.337,45.953C100.219,45.953 100.623,51.732 100.623,53.755C101.798,53.758 103.16,68.181 100.623,68.173C100.62,71.815 91.299,83.61 89.768,86.83C88.741,88.989 81.266,94.526 80.778,89.035C80.732,88.506 77.513,82.952 76.707,81.742C75.671,81.627 66.863,82.963 66.87,84.795C64.918,84.795 64.832,86.981 64.834,82.76C63.282,78.961 60.316,81.326 59.576,79.198C59.318,78.454 58.437,78.961 57.541,77.501C56.082,75.127 48.536,80.477 48.89,82.251C45.077,83.203 43.037,78.815 40.41,77.501C40.41,75.749 39.917,66.81 38.971,64.432C38.273,62.675 34.032,53.819 32.695,52.498C31.143,50.965 24.595,47.083 23.448,47.988C16.946,47.988 21.017,57.835 18.699,57.826C8.845,62.17 -0.5,75.87 4.112,88.018C6.182,93.465 9.24,98.012 15.646,98.364C15.653,99.775 29.449,97.171 29.045,95.142C31.4,95.145 38.377,87.293 38.374,85.304C39.355,85.305 41.988,86.812 43.58,88.127C46.27,90.35 42.102,93.582 43.123,96.159C44.116,98.664 54.993,93 54.997,94.124C56.754,94.13 51.013,110.381 49.738,111.255C47.87,112.536 46.827,135.52 49.738,135.51C49.738,140.512 57.461,137.459 59.237,133.475C60.026,131.703 64.187,120.511 64.325,120.075C64.759,118.713 65.294,111.835 65.343,111.255C65.922,104.508 64.833,99.153 64.834,92.597C64.344,89.608 66.225,88.603 68.459,88.468C70.44,88.35 71.278,90.641 72.128,92.088C73.093,93.734 74.444,94.917 75.181,96.159C75.614,96.891 82.727,97.451 84.51,96.159C86.964,94.382 95.298,88.873 96.553,86.321C97.111,85.186 103.241,74.96 104.185,74.957C103.264,73.114 106.724,74.724 106.729,77.501C107.551,77.503 112.78,85.082 113.005,86.321C113.341,88.171 120.663,92.597 120.807,92.597L125.896,92.597C125.896,92.559 131.915,88.522 131.663,87.509C133.555,86.752 137.222,94.104 138.448,93.615C137.388,95.382 146.223,95.732 146.759,94.124C150.044,95.765 153.123,80.725 153.374,80.724C153.374,75.196 158.629,76.967 158.632,72.413C157.501,72.413 147.268,72.046 147.268,73.94C144.787,73.944 144.045,84.355 144.045,86.491C141.194,86.491 137.762,78.18 135.903,78.18C135.899,75.407 129.119,75.963 129.119,76.993C126.708,76.993 125.544,80.73 127.083,80.724C127.061,92.045 119.21,82.152 117.246,78.18C116.273,76.213 111.479,63.304 111.479,60.54C109.899,60.545 111.382,45.45 109.274,45.444L109.274,44.935ZM21.752,62.575C22.854,62.579 26.256,70.898 26.501,71.904C26.746,72.91 33.231,81.233 33.286,81.233C32.854,83.831 28.643,92.093 25.992,92.088C25.992,93.521 18.195,93.536 18.19,92.088C15.514,92.088 10.41,82.142 11.013,78.509C11.897,73.192 15.632,64.716 20.225,62.066C20.229,61.204 21.754,60.972 21.752,62.575ZM170.505,76.144C169.614,75.556 165.859,77.709 164.399,78.18C161.545,79.1 162.6,81.872 163.381,82.251C164.996,83.035 172.708,91.204 172.71,92.088L177.29,92.088C177.284,90.441 179.532,93.718 177.799,94.294C177.797,96.575 177.29,97.105 177.29,99.382C176.548,99.385 174.184,120.708 173.219,122.11C172.553,123.078 170.27,136.206 169.996,137.206C168.992,140.883 163.858,166.729 161.176,166.72C161.169,168.675 157.43,165.24 158.123,163.158C157.401,163.158 153.936,151.123 155.409,151.115C156.129,147.512 147.764,149.836 147.777,153.829C148.412,153.829 148.991,166.72 150.321,166.72C150.321,168.547 153.567,176.052 155.409,176.048C156.446,179.197 166.434,176.031 166.434,172.826C168.882,174.292 176.37,143.897 177.29,139.242C177.47,138.326 181.095,122.406 181.361,121.602C182.164,119.171 187.135,93.108 187.636,93.106C187.636,90.155 191.246,81.112 189.672,79.537C189.664,76.365 179.827,78.563 179.834,83.268C179.66,83.327 177.791,86.31 177.799,84.286C177.047,84.474 172.306,77.074 171.523,76.484C171.092,76.159 171.092,76.532 170.505,76.144ZM56.014,85.813C57.201,87 56.749,87.924 55.68,88.6C54.118,89.59 51.24,90.053 50.247,90.053C50.249,87.951 51.786,87.486 53.033,87.077C53.421,86.951 56.009,84.701 56.014,85.813ZM58.05,110.746C57.917,111.22 56.912,125.849 54.997,125.842L54.997,126.69C50.268,126.69 57.03,107.868 57.032,105.488C59.003,105.492 58.522,109.052 58.05,110.746Z" style="fill:white;"/>
    </g>
</svg>
