<?xml version="1.0" encoding="UTF-8" standalone="no"?>
<!DOCTYPE svg PUBLIC "-//W3C//DTD SVG 1.1//EN" "http://www.w3.org/Graphics/SVG/1.1/DTD/svg11.dtd">
<svg width="100%" height="100%" viewBox="0 0 416 260" version="1.1" xmlns="http://www.w3.org/2000/svg" xmlns:xlink="http://www.w3.org/1999/xlink" xml:space="preserve" style="fill-rule:evenodd;clip-rule:evenodd;stroke-linejoin:round;stroke-miterlimit:1.41421;">
    <g transform="matrix(1,0,0,1,-42.249,-121.792)">
        <g transform="matrix(1.56497,0,0,1.56497,-196.016,-142.011)">
            <g transform="matrix(1,0,0,1,70,0)">
                <path d="M182.473,270.971L131.272,270.971C98.59,270.971 82.249,281.139 82.249,301.474C82.249,312.004 86.153,320.084 93.96,325.713C101.767,331.341 112.933,334.155 127.459,334.155C141.984,334.155 154.784,329.707 165.86,320.81C176.935,311.914 182.473,300.021 182.473,285.133L182.473,270.971Z" style="fill:white;"/>
            </g>
            <path d="M292.743,308.827C306.361,323.897 323.791,331.432 345.034,331.432C366.277,331.432 383.708,323.897 397.325,308.827C410.942,293.757 417.751,274.239 417.751,250.272C417.751,226.306 410.942,206.697 397.325,191.445C383.708,176.194 366.277,168.568 345.034,168.568C323.791,168.568 306.361,176.194 292.743,191.445C279.126,206.697 272.317,226.306 272.317,250.272C272.317,274.239 279.126,293.757 292.743,308.827Z" style="fill:white;"/>
        </g>
    </g>
</svg>
