<?xml version="1.0" encoding="UTF-8" standalone="no"?>
<!DOCTYPE svg PUBLIC "-//W3C//DTD SVG 1.1//EN" "http://www.w3.org/Graphics/SVG/1.1/DTD/svg11.dtd">
<svg width="100%" height="100%" viewBox="0 0 1084 230" version="1.1" xmlns="http://www.w3.org/2000/svg" xmlns:xlink="http://www.w3.org/1999/xlink" xml:space="preserve" style="fill-rule:evenodd;clip-rule:evenodd;stroke-linejoin:round;stroke-miterlimit:1.41421;">
    <g transform="matrix(4.16667,0,0,4.16667,0,0)">
        <path d="M32.208,15.311L21.378,15.311L21.378,16.9L25.862,16.9L25.862,27.622L27.724,27.622L27.724,16.9L32.208,16.9L32.208,15.311Z" style="fill:rgb(255,255,255);fill-rule:nonzero;"/>
        <path d="M46.457,15.312L44.595,15.312L44.595,20.672L37.337,20.672L37.337,15.312L35.475,15.312L35.475,27.622L37.337,27.622L37.337,22.261L44.595,22.261L44.595,27.622L46.457,27.622L46.457,15.312Z" style="fill:rgb(255,255,255);fill-rule:nonzero;"/>
        <path d="M58.199,15.312L50.846,15.312L50.846,27.622L58.37,27.622L58.37,26.033L52.708,26.033L52.708,22.207L58.009,22.207L58.009,20.618L52.708,20.618L52.708,16.9L58.199,16.9L58.199,15.312Z" style="fill:rgb(255,255,255);fill-rule:nonzero;"/>
        <path d="M84.647,15.312L82.804,15.312L79.27,23.795L75.66,15.312L73.893,15.312L70.302,23.795L66.73,15.312L64.868,15.312L70.112,27.73L70.473,27.73L74.767,17.658L79.023,27.73L79.384,27.73L84.647,15.312Z" style="fill:rgb(255,255,255);fill-rule:nonzero;"/>
        <path d="M98.593,15.312L96.731,15.312L96.731,20.672L89.473,20.672L89.473,15.312L87.611,15.312L87.611,27.622L89.473,27.622L89.473,22.261L96.731,22.261L96.731,27.622L98.593,27.622L98.593,15.312Z" style="fill:rgb(255,255,255);fill-rule:nonzero;"/>
        <rect x="103.001" y="15.312" width="1.862" height="12.31" style="fill:rgb(255,255,255);fill-rule:nonzero;"/>
        <path d="M118.98,15.312L108.15,15.312L108.15,16.9L112.634,16.9L112.634,27.622L114.496,27.622L114.496,16.9L118.98,16.9L118.98,15.312Z" style="fill:rgb(255,255,255);fill-rule:nonzero;"/>
        <path d="M129.6,15.312L122.247,15.312L122.247,27.622L129.771,27.622L129.771,26.033L124.109,26.033L124.109,22.207L129.41,22.207L129.41,20.618L124.109,20.618L124.109,16.9L129.6,16.9L129.6,15.312Z" style="fill:rgb(255,255,255);fill-rule:nonzero;"/>
        <path d="M151.109,16.16C149.342,15.456 147.993,15.149 146.663,15.149C142.54,15.149 139.557,17.893 139.557,21.647C139.557,24.228 141.685,27.784 146.549,27.784C148.582,27.784 149.969,27.333 151.242,26.701L151.242,24.77C149.779,25.672 148.183,26.16 146.72,26.16C143.604,26.16 141.476,24.246 141.476,21.485C141.476,18.777 143.68,16.774 146.644,16.774C148.145,16.774 149.513,17.171 151.109,18.055L151.109,16.16Z" style="fill:rgb(255,255,255);fill-rule:nonzero;"/>
        <path d="M154.471,21.467C154.471,24.806 157.15,27.784 161.387,27.784C165.776,27.784 168.398,24.788 168.398,21.467C168.398,18.037 165.7,15.149 161.425,15.149C157.226,15.149 154.471,18.055 154.471,21.467ZM156.39,21.467C156.39,18.759 158.537,16.774 161.425,16.774C164.332,16.774 166.479,18.759 166.479,21.467C166.479,24.156 164.332,26.16 161.425,26.16C158.537,26.16 156.39,24.156 156.39,21.467Z" style="fill:rgb(255,255,255);fill-rule:nonzero;"/>
        <path d="M184.245,15.312L182.516,15.312L178.203,20.366L173.909,15.312L172.161,15.312L172.161,27.622L174.023,27.622L174.023,18.037L174.061,18.037L178.051,22.802L178.355,22.802L182.345,18.037L182.383,18.037L182.383,27.622L184.245,27.622L184.245,15.312Z" style="fill:rgb(255,255,255);fill-rule:nonzero;"/>
        <path d="M188.462,15.312L188.462,27.622L190.324,27.622L190.324,22.297L192.262,22.297C195.264,22.297 196.632,20.781 196.632,18.849C196.632,16.9 195.34,15.312 192.509,15.312L188.462,15.312ZM190.324,16.9L192.509,16.9C194.2,16.9 194.713,17.875 194.713,18.777C194.713,20.005 193.82,20.708 192.433,20.708L190.324,20.708L190.324,16.9Z" style="fill:rgb(255,255,255);fill-rule:nonzero;"/>
        <path d="M203.703,15.239L202.392,15.239L196.825,27.622L198.725,27.622L200.359,23.994L205.869,23.994L207.598,27.622L209.498,27.622L203.703,15.239ZM203.019,17.947L205.109,22.405L201.081,22.405L203.019,17.947Z" style="fill:rgb(255,255,255);fill-rule:nonzero;"/>
        <path d="M224.433,15.312L222.685,15.312L222.685,24.842L213.907,15.312L212.425,15.312L212.425,27.622L214.173,27.622L214.173,18.145L222.837,27.622L224.433,27.622L224.433,15.312Z" style="fill:rgb(255,255,255);fill-rule:nonzero;"/>
        <path d="M233.096,19.553L229.619,15.312L227.377,15.312L232.184,21.106L232.184,27.622L234.046,27.622L234.046,21.124L238.853,15.312L236.611,15.312L233.096,19.553Z" style="fill:rgb(255,255,255);fill-rule:nonzero;"/>
        <path d="M105.496,35.855L104.614,35.855L104.614,41.993L108.268,41.993L108.268,41.201L105.496,41.201L105.496,35.855Z" style="fill:rgb(255,255,255);fill-rule:nonzero;"/>
        <path d="M111.013,38.924C111.013,40.589 112.282,42.074 114.289,42.074C116.368,42.074 117.61,40.58 117.61,38.924C117.61,37.214 116.332,35.774 114.307,35.774C112.318,35.774 111.013,37.223 111.013,38.924ZM111.922,38.924C111.922,37.574 112.939,36.584 114.307,36.584C115.684,36.584 116.701,37.574 116.701,38.924C116.701,40.265 115.684,41.264 114.307,41.264C112.939,41.264 111.922,40.265 111.922,38.924Z" style="fill:rgb(255,255,255);fill-rule:nonzero;"/>
        <path d="M126.618,35.855L125.79,35.855L125.79,40.607L121.632,35.855L120.93,35.855L120.93,41.993L121.758,41.993L121.758,37.268L125.862,41.993L126.618,41.993L126.618,35.855Z" style="fill:rgb(255,255,255);fill-rule:nonzero;"/>
        <path d="M130.227,41.993L132.621,41.993C134.646,41.993 135.879,40.499 135.879,38.924C135.879,37.475 134.88,35.855 132.612,35.855L130.227,35.855L130.227,41.993ZM131.109,36.647L132.468,36.647C134.187,36.647 134.97,37.691 134.97,38.924C134.97,39.68 134.511,41.201 132.513,41.201L131.109,41.201L131.109,36.647Z" style="fill:rgb(255,255,255);fill-rule:nonzero;"/>
        <path d="M138.948,38.924C138.948,40.589 140.217,42.074 142.224,42.074C144.303,42.074 145.545,40.58 145.545,38.924C145.545,37.214 144.267,35.774 142.242,35.774C140.253,35.774 138.948,37.223 138.948,38.924ZM139.857,38.924C139.857,37.574 140.874,36.584 142.242,36.584C143.619,36.584 144.636,37.574 144.636,38.924C144.636,40.265 143.619,41.264 142.242,41.264C140.874,41.264 139.857,40.265 139.857,38.924Z" style="fill:rgb(255,255,255);fill-rule:nonzero;"/>
        <path d="M154.554,35.855L153.726,35.855L153.726,40.607L149.568,35.855L148.866,35.855L148.866,41.993L149.694,41.993L149.694,37.268L153.798,41.993L154.554,41.993L154.554,35.855Z" style="fill:rgb(255,255,255);fill-rule:nonzero;"/>
        <path d="M257.051,2.246L2,2.246L2,53L257.051,53L257.051,2.246ZM259.051,0.246L259.051,55L0,55L0,0.246L259.051,0.246Z" style="fill:rgb(255,255,255);fill-rule:nonzero;"/>
    </g>
</svg>
