<?xml version="1.0" encoding="UTF-8" standalone="no"?>
<!DOCTYPE svg PUBLIC "-//W3C//DTD SVG 1.1//EN" "http://www.w3.org/Graphics/SVG/1.1/DTD/svg11.dtd">
<svg width="100%" height="100%" viewBox="0 0 1150 329" version="1.1" xmlns="http://www.w3.org/2000/svg" xmlns:xlink="http://www.w3.org/1999/xlink" xml:space="preserve" style="fill-rule:evenodd;clip-rule:evenodd;stroke-linejoin:round;stroke-miterlimit:1.41421;">
    <g transform="matrix(1,0,0,1,-275.1,-272.2)">
        <g>
            <path d="M1403.61,600.879C1415.3,600.879 1424.55,591.262 1424.55,579.196C1424.55,567.083 1415.3,557.508 1403.65,557.508C1392.02,557.508 1382.81,567.083 1382.81,579.196C1382.76,591.262 1391.89,600.879 1403.61,600.879ZM1403.69,561.025C1413.17,561.025 1421.13,568.913 1421.17,579.196C1421.13,589.392 1413.15,597.371 1403.61,597.371C1394.01,597.371 1386.1,589.392 1386.16,579.196C1386.18,568.913 1394.12,561.025 1403.69,561.025ZM1405.42,567.417C1409.56,567.417 1413.31,568.646 1413.37,573.721C1413.32,578.4 1410.27,580.129 1407.15,580.225L1412.93,591.317L1409.17,591.317L1403.34,580.225L1399.08,580.225L1399.05,591.317L1395.73,591.317L1395.73,567.417L1405.42,567.417ZM387.871,436.604C403.954,436.604 409.908,447.429 409.908,447.429L450.608,530.046L417.529,586.833L390.408,586.833C357.338,586.833 351.408,567.604 351.408,567.604L297.987,469.987C286.991,449.163 275.994,436.64 275.963,436.604L387.871,436.604ZM531.125,586.833L427.725,586.833C439.579,577.633 498.908,451.613 498.908,451.613C505.697,435.779 524.311,436.615 524.35,436.617L634.567,436.617C627.791,442.434 614.238,465.812 614.238,465.812L558.275,571.775C550.646,585.123 531.166,586.83 531.125,586.833ZM863.029,583.812L816.2,583.812L816.2,418.471L863.029,418.471L863.029,583.812ZM1333.29,418.471C1362.23,418.471 1386.29,442.879 1386.29,472.671L1386.29,529.583C1386.29,559.196 1362.23,583.812 1333.29,583.812L1294,583.812C1265.05,583.812 1241.04,559.196 1241.04,529.583L1241.04,472.671C1241.04,442.879 1265.05,418.471 1294,418.471L1333.29,418.471ZM938.021,419.008C938.059,419.014 956.23,421.707 960.954,444.375C965.104,464.796 975.804,509.579 975.804,509.579C975.804,509.579 984.45,466.896 988.404,446.521C992.516,423.861 1009.96,419.601 1010,419.592L1066.94,419.592L1066.94,583.2L1021.85,583.2L1021.85,473.629L997.787,583.2L953.212,583.025L928.042,472.475L928.042,583.2L881.242,583.2L881.242,419.008L938.021,419.008ZM759.279,583.025L658.908,583.025L658.908,419.204C658.908,419.204 697.25,419.008 729.946,419.204C739.896,419.204 736.167,419.204 761.738,419.204C789.717,419.204 802.496,437.3 802.496,465.75C802.496,480.363 796.083,492.267 786.533,501.713C794.971,510.913 802.496,524.179 802.496,537.675C802.496,567.675 787.263,583.025 759.279,583.025ZM1186.12,583.025L1085.75,583.025L1085.75,419.204C1085.75,419.204 1124.11,419.008 1156.6,419.204L1188.55,419.204C1216.56,419.204 1229.35,437.3 1229.35,465.75C1229.35,480.363 1222.92,492.267 1213.37,501.713C1221.87,510.913 1229.14,524.179 1229.14,537.675C1229.14,567.675 1214.1,583.025 1186.12,583.025ZM1404.84,570.829L1399.12,570.829L1399.08,576.758L1402.63,576.758C1405.73,576.758 1410,577.342 1409.95,574.033C1410.02,571.071 1407.56,570.829 1404.84,570.829ZM1138.35,518.071L1154.17,486.7C1154.17,486.7 1167.1,486.513 1169.03,486.513C1176.18,486.513 1182.53,480.175 1182.53,473.221C1182.53,466.325 1176.7,460.571 1169.6,460.571C1167.3,460.571 1133.33,459.946 1133.33,459.946L1133.33,543.038C1133.33,543.038 1169.03,543.225 1170.12,543.225C1177.29,543.225 1183.11,537.467 1183.11,530.746C1183.11,524.013 1177.85,518.625 1171.09,518.071L1138.35,518.071ZM711.55,518.071L727.512,486.7C727.512,486.7 740.288,486.513 742.163,486.513C749.321,486.513 755.704,480.175 755.704,473.221C755.704,466.325 749.883,460.571 742.721,460.571C740.663,460.571 706.458,459.946 706.458,459.946L706.458,543.038C706.458,543.038 742.163,543.225 743.496,543.225C750.446,543.225 756.263,537.467 756.263,530.746C756.263,524.013 751.021,518.625 744.433,518.071L711.55,518.071ZM1304.14,456.508C1293.81,456.508 1285.15,465.179 1285.15,475.95L1285.15,523.046C1285.15,533.617 1293.81,542.463 1304.14,542.463L1320.51,542.463C1331.04,542.462 1339.49,533.617 1339.49,523.046L1339.49,475.95C1339.49,465.179 1331.04,456.508 1320.51,456.508L1304.14,456.508ZM426.871,272.2L530.283,272.2C530.283,272.2 549.796,273.871 557.4,287.233L613.371,393.225C613.371,393.225 626.95,416.575 633.713,422.442L523.496,422.442C523.496,422.442 504.854,423.263 498.067,407.408C498.067,407.408 438.733,281.375 426.871,272.2ZM386.996,422.433L275.1,422.433C275.1,422.433 286.121,409.904 297.133,389.042L350.554,291.404C350.554,291.404 356.487,272.2 389.563,272.2L416.692,272.2L449.742,328.942L409.054,411.583C409.054,411.583 403.113,422.433 386.996,422.433ZM737.596,343.375L718.942,343.375C718.942,335.05 716.417,332.671 708.579,332.275C705.333,332.142 693.621,332.275 690.375,332.275C676.95,332.275 676.95,341.525 676.95,352.625L676.95,369.412C676.95,386.062 681.275,386.062 698.487,386.062C714.617,386.062 719.3,386.062 719.3,371.258L696.504,371.258L696.504,355.533L737.683,355.533L737.683,372.45C737.683,388.046 735.704,400.733 716.329,402.979C710.292,403.508 704.433,403.771 698.487,403.771C670.642,403.771 657.754,397.825 657.754,369.013C657.754,365.05 657.754,356.458 657.754,352.625C657.754,318.925 671.542,314.833 695.692,314.833L703.621,314.833C726.962,314.833 737.237,318.133 737.596,343.375ZM867.992,384.608C878.621,384.608 884.479,384.875 884.479,373.508L884.479,315.621L903.133,315.621L903.133,373.508C903.133,395.05 890.608,403.771 865.829,403.771C841.408,403.771 827.079,398.879 827.079,371.392L827.079,315.621L845.733,315.621L845.733,371.392C845.733,383.154 850.779,384.608 862.046,384.608L867.992,384.608ZM1067.5,341.792L1067.5,375.621C1067.5,395.312 1052.1,403.242 1039.84,403.242C1036.69,404.038 1013.89,403.113 1013.89,403.113C1001.18,402.45 988.833,393.2 988.833,375.621L988.833,341.792C988.833,325.271 1002.44,315.358 1012.9,315.358L1040.65,315.358C1053.9,315.358 1067.5,324.346 1067.5,341.792ZM762.288,403.113L744.083,403.113L744.083,315.492L788.508,315.492C809.596,315.492 818.517,321.833 818.517,342.717C818.517,353.288 813.379,363.992 802.117,365.579C812.663,366.238 817.437,372.583 817.437,383.287L817.437,403.113L798.604,403.113L798.604,386.062C798.242,378 793.375,376.021 785.717,376.021L762.288,376.021L762.288,403.113ZM931.792,403.113L913.5,403.113L913.5,315.492L950.175,315.492C974.688,315.492 986.221,319.325 986.221,345.625C986.221,371.392 974.958,375.492 951.163,375.492L931.792,375.492L931.792,403.113ZM1034.34,332.275L1019.38,332.275C1011.09,332.275 1007.49,339.546 1007.49,350.908L1007.49,367.562C1007.49,378.529 1011,385.667 1019.38,385.667L1034.34,385.667C1044.88,385.667 1048.58,379.325 1048.58,367.562L1048.58,351.571C1048.58,340.338 1044.7,332.275 1034.34,332.275ZM950.446,357.517C962.521,357.517 967.208,357.517 967.208,345.625C967.208,335.712 965.137,334.388 952.246,334.388L931.792,334.388L931.792,357.517L950.446,357.517ZM785.717,357.121C795.629,357.121 799.321,355.138 799.321,346.021C799.321,338.883 798.871,334.917 786.8,334.917L762.288,334.917L762.288,357.121L785.717,357.121Z" style="fill:white;"/>
        </g>
    </g>
</svg>
