<?xml version="1.0" encoding="UTF-8" standalone="no"?>
<!DOCTYPE svg PUBLIC "-//W3C//DTD SVG 1.1//EN" "http://www.w3.org/Graphics/SVG/1.1/DTD/svg11.dtd">
<svg width="100%" height="100%" viewBox="0 0 464 174" version="1.1" xmlns="http://www.w3.org/2000/svg" xmlns:xlink="http://www.w3.org/1999/xlink" xml:space="preserve" style="fill-rule:evenodd;clip-rule:evenodd;stroke-linejoin:round;stroke-miterlimit:1.41421;">
    <g>
        <path d="M301.915,69.733C322.45,69.733 339.098,86.381 339.098,106.916C339.098,127.451 322.45,144.1 301.915,144.1C292.222,144.1 283.397,140.39 276.778,134.314L276.778,170.814L264.731,170.814L264.731,106.916L264.721,102.233C267.029,83.914 282.969,69.733 301.915,69.733ZM301.915,82.007C315.672,82.007 326.824,93.159 326.824,106.916C326.824,120.673 315.672,131.825 301.915,131.825C288.158,131.825 277.006,120.673 277.006,106.916C277.006,93.159 288.158,82.007 301.915,82.007Z" style="fill:white;"/>
        <path d="M214.19,69.733C234.726,69.733 251.374,86.381 251.374,106.916C251.374,127.451 234.726,144.1 214.19,144.1C204.498,144.1 195.672,140.39 189.054,134.314L189.054,170.814L177.007,170.814L177.007,106.916L176.997,102.233C179.305,83.914 195.244,69.733 214.19,69.733ZM214.19,82.007C227.947,82.007 239.099,93.159 239.099,106.916C239.099,120.673 227.947,131.825 214.19,131.825C200.433,131.825 189.281,120.673 189.281,106.916C189.281,93.159 200.433,82.007 214.19,82.007Z" style="fill:white;"/>
        <path d="M127.549,69.733C148.084,69.733 164.733,86.381 164.733,106.916C164.733,108.67 164.608,110.395 164.373,112.084C144.054,112.084 123.722,111.856 103.131,111.856C105.423,123.246 117.977,131.825 127.549,131.825C137.121,131.825 147.694,124.719 152.228,119.978L160.875,129.184C151.956,136.721 148.048,143.016 127.73,143.197C107.412,143.378 90.366,130.52 90.366,106.916C90.366,83.312 107.013,69.733 127.549,69.733ZM103.671,99.809L151.427,99.809C148.368,89.516 138.836,82.007 127.549,82.007C116.262,82.007 106.73,89.516 103.671,99.809Z" style="fill:white;"/>
        <path d="M37.658,69.733C59.922,69.733 74.615,88.545 74.615,111.022L74.615,142.409C74.615,163.166 57,173.901 40.547,173.901C21.306,173.901 10.442,171.289 2.837,162.304L12.141,153.55C18.498,158.987 25.386,161.626 37.839,161.626C50.046,161.626 62.568,154.159 62.568,138.748L62.568,134.52C55.976,140.474 47.241,144.1 37.658,144.1C17.123,144.1 0.475,127.451 0.475,106.916C0.475,86.381 17.123,69.733 37.658,69.733ZM37.658,82.007C51.415,82.007 62.567,93.159 62.567,106.916C62.567,120.673 51.415,131.825 37.658,131.825C23.901,131.825 12.749,120.673 12.749,106.916C12.749,93.159 23.901,82.007 37.658,82.007Z" style="fill:white;"/>
        <path d="M457.92,27.182C454.152,76.953 409.296,66.255 373.598,81.384C381.968,91.708 394.153,100.75 415.776,100.277C427.817,100.013 440.58,94.562 449.889,85.013C459.097,75.564 463.22,61.686 463.465,53.85C463.982,37.311 461.03,32.907 457.92,27.182Z" style="fill:white;"/>
        <path d="M371.116,77.677C401.199,74.795 436.865,41.021 444.295,10.7C421.966,-5.543 397.188,-1.46 381.178,11.779C362.821,26.957 355.643,54.235 371.116,77.677Z" style="fill:white;"/>
    </g>
</svg>
