<?xml version="1.0" encoding="UTF-8" standalone="no"?>
<!DOCTYPE svg PUBLIC "-//W3C//DTD SVG 1.1//EN" "http://www.w3.org/Graphics/SVG/1.1/DTD/svg11.dtd">
<svg width="100%" height="100%" viewBox="0 0 119 36" version="1.1" xmlns="http://www.w3.org/2000/svg" xmlns:xlink="http://www.w3.org/1999/xlink" xml:space="preserve" style="fill-rule:evenodd;clip-rule:evenodd;stroke-linejoin:round;stroke-miterlimit:1.41421;">
    <g id="XMLID_221_">
        <path id="XMLID_250_" d="M12,35.5C5.7,35.5 0.8,30.6 0.8,24.2C0.8,17.6 5.6,12.6 12.2,12.6C14.1,12.6 15.4,12.9 17,13.8L17,20.3C15.6,19.3 14.6,18.9 13.3,18.9C10.4,18.9 8.3,21.1 8.3,24.1C8.3,27.1 10.4,29.3 13.3,29.3C14.7,29.3 15.8,28.9 17,27.9L17,34.4C15.2,35.2 13.8,35.5 12,35.5" style="fill:white;fill-rule:nonzero;"/>
        <path id="XMLID_247_" d="M28.5,35.6C21.3,35.6 16.2,30.8 16.2,24C16.2,17.3 21.3,12.5 28.5,12.5C35.7,12.5 40.8,17.3 40.8,24C40.8,30.8 35.7,35.6 28.5,35.6ZM28.5,19.1C25.9,19.1 23.8,21.3 23.8,24C23.8,26.7 25.9,28.9 28.5,28.9C31.1,28.9 33.2,26.7 33.2,24C33.2,21.3 31.1,19.1 28.5,19.1" style="fill:white;fill-rule:nonzero;"/>
        <path id="XMLID_246_" d="M54.7,34.8L54.7,23.9C54.7,21.5 54.7,21.4 54.2,20.5C53.8,19.5 52.6,18.8 51.4,18.8C49,18.8 47.6,20.4 47.6,23.2L47.6,34.7L40.4,34.7L40.4,13.3L47.6,13.3L47.6,16C47.9,15.6 48.3,15.2 48.5,14.9C49.8,13.5 51.7,12.8 54.1,12.8C56.6,12.8 58.6,13.6 60,15.2C61.5,16.8 61.9,18.2 61.9,21.2L61.9,34.9L54.7,34.9" style="fill:white;fill-rule:nonzero;"/>
        <path id="XMLID_245_" d="M72.3,19.6L72.3,34.8L65,34.8L65,19.6L61.7,19.6L61.7,13.3L65,13.3L65,6.8L72.3,6.8L72.3,13.3L77.4,13.3L77.4,19.6L72.3,19.6" style="fill:white;fill-rule:nonzero;"/>
        <path id="XMLID_242_" d="M81.8,9.3C79.4,9.3 77.5,7.4 77.5,5C77.5,2.6 79.4,0.7 81.8,0.7C84.2,0.7 86.1,2.6 86.1,5C86.1,7.4 84.2,9.3 81.8,9.3ZM78.2,13.3L85.4,13.3L85.4,34.8L78.2,34.8L78.2,13.3Z" style="fill:white;fill-rule:nonzero;"/>
        <path id="XMLID_241_" d="M102.6,34.8L94.7,26L94.7,34.8L87.5,34.8L87.5,0L94.7,0L94.7,21L102.2,13.3L112.2,13.3L101.9,23.2L112.8,34.8L102.6,34.8" style="fill:white;fill-rule:nonzero;"/>
        <path id="XMLID_222_" d="M114.7,9.3C112.3,9.3 110.4,7.4 110.4,5C110.4,2.6 112.3,0.7 114.7,0.7C117.1,0.7 119,2.6 119,5C119,7.4 117.1,9.3 114.7,9.3ZM111.1,13.3L118.3,13.3L118.3,34.8L111.1,34.8L111.1,13.3Z" style="fill:white;fill-rule:nonzero;"/>
    </g>
</svg>
