<?xml version="1.0" encoding="UTF-8" standalone="no"?>
<!DOCTYPE svg PUBLIC "-//W3C//DTD SVG 1.1//EN" "http://www.w3.org/Graphics/SVG/1.1/DTD/svg11.dtd">
<svg width="100%" height="100%" viewBox="0 0 5000 5000" version="1.1" xmlns="http://www.w3.org/2000/svg" xmlns:xlink="http://www.w3.org/1999/xlink" xml:space="preserve" style="fill-rule:evenodd;clip-rule:evenodd;stroke-linejoin:round;stroke-miterlimit:1.41421;">
    <g id="Layer-1" transform="matrix(4.16667,0,0,4.16667,0,0)">
        <path d="M156.753,1031.72C156.753,1039.9 150.136,1045.74 141.975,1045.74C133.815,1045.74 127.989,1039.9 127.989,1031.72C127.989,1024.33 133.815,1017.7 141.975,1017.7C150.136,1017.7 156.753,1024.33 156.753,1031.72M159.073,1031.72C159.073,1022.76 151.691,1015.36 141.975,1015.36C133.037,1015.36 125.643,1022.76 125.643,1031.72C125.643,1041.45 133.037,1048.86 141.975,1048.86C151.691,1048.86 159.073,1041.45 159.073,1031.72M146.246,1028.6C146.246,1026.66 145.087,1026.66 144.309,1026.66L138.877,1026.66L138.877,1030.94L143.518,1030.94C145.087,1030.94 146.246,1030.15 146.246,1028.6M149.358,1039.9L146.246,1039.9C146.246,1038.33 145.864,1035.99 145.864,1035.61C145.864,1034.84 145.864,1033.28 143.518,1033.28L138.877,1033.28L138.877,1039.9L136.927,1039.9L136.927,1024.33L143.518,1024.33C146.246,1024.33 148.58,1025.11 148.58,1027.82C148.58,1030.15 147.803,1030.94 147.024,1031.72C147.803,1032.5 148.58,1033.28 148.58,1034.84L148.58,1037.56C148.58,1038.33 148.58,1038.33 149.358,1038.33L149.358,1039.9Z" style="fill:white;"/>
        <path d="M1068.13,151.138L180.061,151.138L180.061,527.362L210.381,458.034L275.28,458.034L284.218,475.172L284.218,458.034L360.006,458.034L377.118,495.038L393.82,458.034L635.567,458.034C646.837,458.034 656.554,459.985 663.935,466.22L663.935,458.034L730.391,458.034L730.391,466.22C741.279,459.985 755.663,458.034 771.982,458.034L867.98,458.034L876.918,475.172L876.918,458.034L947.643,458.034L958.151,475.172L958.151,458.034L1027.32,458.034L1027.32,604.1L957.372,604.1L943.767,581.887L943.767,604.1L856.695,604.1L846.993,580.332L825.61,580.332L815.895,604.1L770.413,604.1C752.551,604.1 739.329,599.802 730.391,595.135L730.391,604.1L622.344,604.1L622.344,570.589C622.344,565.923 621.567,565.145 618.469,565.145L614.962,565.145L614.962,604.1L406.252,604.1L406.252,585.394L398.869,604.1L354.944,604.1L347.561,586.171L347.561,604.1L263.23,604.1L254.293,580.332L232.923,580.332L223.195,604.1L180.061,604.1L180.061,1044.96L1068.13,1044.96L1068.13,777.401C1058.8,781.686 1045.2,784.018 1031.99,784.018L967.088,784.018L967.088,775.067C959.692,780.908 946.088,784.018 933.656,784.018L729.625,784.018L729.625,750.535C729.625,745.855 728.836,745.855 724.946,745.855L721.466,745.855L721.466,784.018L654.22,784.018L654.22,744.298C642.948,749.744 630.505,749.744 619.233,749.744L611.85,749.744L611.85,784.018L529.853,784.018L510.423,761.437L489.04,784.018L357.29,784.018L357.29,637.585L491.372,637.585L510.423,660.18L531.41,637.585L621.567,637.585C632.073,637.585 649.171,639.14 656.554,646.536L656.554,637.585L737.008,637.585C745.155,637.585 760.711,639.14 771.204,646.536L771.204,637.585L892.46,637.585L892.46,646.536C899.46,640.695 911.892,637.585 923.163,637.585L990.79,637.585L990.79,646.536C998.187,641.486 1008.67,637.585 1022.27,637.585L1068.13,637.585L1068.13,151.138ZM225.924,537.882L243.418,496.593L260.502,537.882L225.924,537.882ZM637.109,521.14C633.233,523.473 629.727,523.473 624.665,523.473L593.974,523.473L593.974,500.496L624.665,500.496C628.962,500.496 633.998,500.496 637.109,502.051C640.22,504.003 641.775,507.113 641.775,511.78C641.775,516.078 640.22,519.967 637.109,521.14M853.201,537.882L836.103,496.593L819.005,537.882L853.201,537.882ZM449.386,478.679L408.598,478.679L377.882,549.563L345.241,478.679L305.218,478.679L305.218,577.207L262.453,478.679L225.542,478.679L180.838,583.06L207.653,583.06L216.986,560.083L269.454,560.083L278.773,583.06L329.686,583.06L329.686,501.274L366.228,583.06L387.597,583.06L424.141,501.274L424.141,583.06L449.386,583.06L449.386,478.679ZM551.618,561.638L493.311,561.638L493.311,540.612L550.84,540.612L550.84,519.19L493.311,519.19L493.311,500.496L551.618,500.496L551.618,478.679L468.053,478.679L468.053,583.06L551.618,583.06L551.618,561.638ZM656.554,483.359C648.381,478.679 639.456,478.679 626.629,478.679L569.494,478.679L569.494,583.06L593.974,583.06L593.974,545.278L620.788,545.278C629.727,545.278 635.567,546.056 639.456,549.563C643.727,555.021 642.948,563.971 642.948,569.812L642.948,583.06L668.59,583.06L668.59,562.416C668.59,553.464 667.811,548.784 663.935,543.722C661.603,540.612 657.332,537.105 651.887,534.772C658.873,531.647 669.777,523.473 669.777,507.113C669.777,495.038 664.715,488.421 656.554,483.359M709.403,478.679L684.158,478.679L684.158,583.06L709.403,583.06L709.403,478.679ZM1005.17,583.06L969.421,583.06L922.384,504.781L922.384,583.06L871.869,583.06L862.14,560.083L810.067,560.083L800.352,583.06L771.204,583.06C759.155,583.06 743.613,580.332 734.675,571.38C726.502,562.416 721.835,550.341 721.835,531.647C722.23,516.078 724.181,502.051 735.453,490.754C742.836,482.581 756.427,478.679 773.538,478.679L797.24,478.679L797.24,501.274L773.538,501.274C764.6,501.274 759.155,502.83 754.093,507.113C749.439,511.78 747.489,519.967 747.489,530.869C747.489,542.167 749.439,550.341 754.093,555.798C757.6,559.304 764.6,560.86 771.204,560.86L782.476,560.86L818.241,478.679L855.153,478.679L897.127,577.207L897.127,478.679L935.607,478.679L979.52,551.118L979.52,478.679L1005.17,478.679L1005.17,583.06ZM465.719,741.57L403.931,741.57L403.931,720.53L459.115,720.53L459.115,699.504L403.931,699.504L403.931,680.428L466.497,680.428L494.102,710.802L465.719,741.57ZM526.348,710.802L564.827,669.908L564.827,754.027L526.348,710.802ZM622.344,706.912L589.308,706.912L589.308,680.428L622.344,680.428C631.296,680.428 637.109,683.935 637.109,692.887C637.109,701.837 631.296,706.912 622.344,706.912M743.613,701.837C739.724,703.405 736.217,703.405 731.564,703.405L701.257,704.184L701.257,680.428L731.564,680.428C736.217,680.428 740.502,680.428 743.613,682.367C746.723,683.935 748.662,687.046 748.662,691.33C748.662,696.01 746.723,699.504 743.613,701.837M622.344,658.611L542.68,658.611L510.423,692.887L480.102,658.611L379.437,658.611L379.437,762.992L478.545,762.992L510.423,728.716L541.125,762.992L589.308,762.992L589.308,727.939L620.788,727.939C642.171,727.939 663.935,722.099 663.935,692.887C663.935,664.451 641.775,658.611 622.344,658.611M763.823,663.673C755.663,659.388 745.946,658.611 733.107,658.611L675.985,658.611L675.985,762.992L701.257,762.992L701.257,724.829L728.07,724.829C737.008,724.829 742.057,725.606 745.946,729.495C750.217,734.557 750.217,743.509 750.217,750.535L750.217,762.992L775.093,762.992L775.093,742.73C775.093,733.384 774.316,728.716 771.204,723.654C768.871,720.53 764.6,716.641 758.377,714.691C765.365,712.357 776.253,703.405 776.253,687.046C776.253,674.971 771.982,668.353 763.823,663.673M873.806,741.57L815.117,741.57L815.117,720.53L872.647,720.53L872.647,699.504L815.117,699.504L815.117,680.428L873.806,680.428L873.806,658.611L790.636,658.611L790.636,762.992L873.806,762.992L873.806,741.57ZM969.421,707.69C963.199,702.628 954.262,699.504 940.274,699.504L926.669,699.504C923.163,699.504 920.052,698.727 916.954,697.949C914.226,696.788 911.892,694.442 911.892,690.539C911.892,687.046 912.683,684.699 915.781,682.367C917.718,680.81 920.829,680.81 925.496,680.81L971.36,680.81L971.36,658.611L921.607,658.611C894.793,658.611 885.856,674.971 885.856,689.775C885.856,722.877 915.003,721.321 937.941,722.099C942.594,722.099 945.324,722.877 946.879,724.433C948.422,725.606 949.99,728.716 949.99,731.828C949.99,734.557 948.422,736.904 946.879,738.459C944.533,740.015 941.817,740.793 937.163,740.793L888.967,740.793L888.967,762.992L937.163,762.992C962.422,762.992 976.804,752.472 976.804,730.286C976.804,719.766 973.679,713.136 969.421,707.69M1074.36,730.286C1074.36,752.472 1059.96,762.992 1034.71,762.992L986.519,762.992L986.519,740.793L1034.71,740.793C1039.37,740.793 1042.88,740.015 1044.43,738.459C1045.99,736.904 1047.53,734.557 1047.53,731.828C1047.53,728.716 1045.99,725.606 1044.43,724.433C1042.88,722.877 1040.15,722.099 1035.49,722.099C1012.57,721.321 983.409,722.877 983.409,689.775C983.409,674.971 993.124,658.611 1019.16,658.611L1068.91,658.611L1068.91,680.81L1023.05,680.81C1018.38,680.81 1015.27,680.81 1013.33,682.367C1011,684.699 1009.45,687.046 1009.45,690.539C1009.45,694.442 1011.78,696.788 1014.49,697.949C1017.62,698.727 1020.73,699.504 1024.22,699.504L1037.81,699.504C1051.81,699.504 1060.75,702.628 1066.97,707.69C1071.25,713.136 1074.36,719.766 1074.36,730.286" style="fill:white;"/>
    </g>
</svg>
